<?xml version="1.0" standalone="no"?>
<!DOCTYPE svg PUBLIC "-//W3C//DTD SVG 20010904//EN"
 "http://www.w3.org/TR/2001/REC-SVG-20010904/DTD/svg10.dtd">
<svg version="1.0" xmlns="http://www.w3.org/2000/svg"
 width="3920.000000pt" height="3912.000000pt" viewBox="0 0 3920.000000 3912.000000"
 preserveAspectRatio="xMidYMid meet">
<metadata>
Created by potrace 1.13, written by Peter Selinger 2001-2015
</metadata>
<g transform="translate(0.000000,3912.000000) scale(0.100000,-0.100000)"
fill="#000000" stroke="none">
<path d="M19270 39114 c-289 -10 -617 -27 -860 -44 -2900 -208 -5725 -1070
-8245 -2515 -1121 -643 -2168 -1390 -3140 -2241 -593 -520 -1279 -1206 -1799
-1799 -2362 -2698 -3932 -5996 -4531 -9520 -134 -785 -210 -1493 -257 -2375
-17 -310 -17 -1449 0 -1760 91 -1717 353 -3233 827 -4785 1566 -5129 5195
-9385 10010 -11741 2304 -1127 4754 -1775 7332 -1939 586 -37 1526 -44 2093
-15 2759 141 5335 812 7760 2024 1494 747 2859 1663 4115 2762 593 520 1279
1206 1799 1799 2580 2947 4212 6610 4670 10485 96 813 130 1412 130 2290 0
643 -7 859 -45 1390 -207 2898 -1069 5725 -2514 8245 -643 1121 -1390 2168
-2241 3140 -520 593 -1206 1279 -1799 1799 -2716 2378 -6027 3947 -9585 4541
-752 126 -1464 202 -2290 245 -199 11 -1239 21 -1430 14z m1395 -253 c105 -6
262 -15 350 -21 4291 -282 8356 -1991 11553 -4858 1811 -1624 3298 -3580 4377
-5757 1116 -2253 1774 -4681 1950 -7195 33 -474 40 -700 40 -1320 0 -620 -7
-846 -40 -1320 -269 -3841 -1673 -7492 -4044 -10515 -1759 -2243 -4011 -4074
-6566 -5340 -2253 -1116 -4681 -1774 -7195 -1950 -474 -33 -700 -40 -1320 -40
-620 0 -846 7 -1320 40 -3841 269 -7492 1673 -10515 4044 -2243 1759 -4074
4011 -5340 6566 -1116 2253 -1774 4681 -1950 7195 -33 474 -40 700 -40 1320 0
620 7 846 40 1320 269 3841 1673 7492 4044 10515 1759 2243 4011 4074 6566
5340 2251 1115 4672 1771 7190 1949 184 13 504 29 790 40 177 7 1244 -3 1430
-13z"/>
<path d="M19145 38017 c-156 -81 -368 -211 -406 -250 -75 -74 -174 -203 -201
-260 -55 -113 -69 -167 -74 -277 -5 -92 -2 -117 21 -200 14 -52 30 -109 34
-126 17 -66 134 -271 275 -483 70 -106 137 -237 166 -324 17 -53 21 -85 18
-139 l-4 -71 -65 -61 c-36 -34 -118 -99 -182 -145 -271 -194 -437 -441 -502
-749 -37 -176 -46 -317 -55 -792 -8 -435 -15 -562 -32 -535 -3 6 -13 57 -22
115 -89 571 -104 639 -175 785 -85 173 -207 292 -400 388 l-124 61 -39 -44
c-29 -33 -38 -49 -33 -65 17 -51 66 -366 81 -520 18 -187 15 -337 -12 -546
-33 -260 -89 -475 -224 -854 -203 -571 -273 -800 -286 -938 -2 -29 -9 -88 -14
-132 -65 -531 200 -1176 679 -1655 217 -217 523 -440 637 -464 25 -6 38 -2 64
21 l34 28 -8 -25 c-76 -262 -98 -405 -105 -690 -4 -184 -8 -230 -14 -185 -4
33 -11 66 -16 73 -9 15 -138 37 -461 82 -732 99 -1314 140 -2015 140 -796 0
-1408 -56 -2095 -191 -1046 -206 -2036 -604 -2845 -1144 -222 -148 -348 -245
-395 -304 -24 -32 -32 -53 -37 -103 -7 -75 8 -137 71 -305 33 -89 41 -121 33
-129 -13 -13 -304 -184 -312 -184 -17 0 -248 -165 -262 -187 -14 -21 -18 -49
-18 -132 0 -103 1 -109 47 -218 l46 -112 -169 -101 c-223 -133 -240 -149 -269
-267 l-22 -93 22 -37 c21 -36 362 -695 438 -848 19 -38 108 -212 197 -385 194
-377 294 -571 620 -1210 136 -267 318 -622 405 -790 238 -460 322 -624 505
-985 92 -181 232 -454 310 -605 78 -151 202 -392 275 -535 73 -143 145 -282
160 -310 25 -44 247 -480 660 -1290 73 -143 202 -395 287 -560 86 -165 170
-329 188 -365 19 -36 101 -195 183 -355 82 -159 204 -398 272 -530 67 -132
147 -282 177 -333 61 -105 71 -112 198 -139 l71 -16 290 110 c913 348 1849
622 2534 742 63 11 162 29 220 41 95 18 460 73 665 100 119 15 347 33 455 35
52 1 156 7 230 14 119 10 147 10 225 -5 77 -14 184 -17 720 -19 676 -3 665 -2
1130 -65 575 -79 1302 -229 1920 -397 511 -138 1317 -394 1952 -619 409 -145
495 -173 571 -186 81 -14 114 -2 186 67 88 85 -39 -162 1846 3590 342 682 626
1245 630 1250 4 6 268 528 586 1160 318 633 762 1515 987 1960 224 446 478
951 563 1123 l155 313 -17 52 c-42 130 -109 207 -279 320 -66 44 -139 95 -161
113 l-42 34 45 127 c41 119 44 133 39 204 -3 41 -10 87 -15 102 -11 29 -146
133 -366 282 -71 49 -149 103 -172 122 l-42 33 36 98 35 97 -17 50 c-45 134
-177 266 -520 523 -465 349 -1067 682 -1635 907 -545 215 -1174 386 -1746 475
-71 11 -169 26 -219 34 -516 84 -1417 117 -2080 76 -539 -33 -1229 -117 -1655
-201 -25 -5 -79 -14 -120 -20 -41 -5 -84 -14 -95 -18 -20 -8 -20 -4 -20 315 0
178 2 317 5 309 4 -11 23 -3 79 31 470 283 844 732 1070 1282 169 412 158 782
-44 1378 -48 142 -159 423 -248 624 -305 697 -422 1025 -489 1385 -29 157 -32
505 -5 655 22 123 22 144 0 136 -10 -4 -26 3 -44 20 l-27 26 -51 -28 c-29 -15
-76 -50 -105 -78 -87 -82 -138 -227 -180 -512 -25 -171 -72 -290 -152 -382
-42 -49 -47 -46 -58 33 -4 28 -31 154 -61 280 -101 431 -109 480 -109 735 -1
243 8 316 64 533 21 82 24 107 14 107 -8 0 -20 13 -28 28 -31 59 -33 59 -171
-46 -126 -95 -338 -292 -352 -329 -5 -10 -46 -76 -93 -147 -79 -121 -85 -127
-88 -98 -2 17 8 109 22 204 53 352 26 564 -99 782 -83 147 -208 274 -550 565
-60 52 -121 105 -134 120 -13 14 -43 39 -66 56 -24 16 -86 71 -139 122 -84 80
-101 103 -141 184 -29 59 -45 106 -45 130 0 93 89 248 258 449 l80 95 -36 38
c-20 20 -41 37 -47 37 -5 0 -64 -29 -130 -63z m532 -3324 c36 -43 323 -476
390 -588 207 -346 287 -542 315 -778 17 -142 2 -232 -72 -430 -71 -188 -87
-247 -106 -386 -30 -231 -11 -485 45 -594 25 -48 27 -57 11 -42 -11 10 -20 22
-20 28 0 5 -71 107 -157 226 -87 119 -163 225 -169 236 -6 11 -26 47 -45 80
-19 33 -44 78 -55 100 -15 28 -35 47 -67 62 -46 22 -46 22 -89 4 -24 -10 -64
-22 -89 -25 -35 -5 -54 -16 -84 -46 l-39 -40 -2 -92 c-3 -161 -110 -515 -259
-861 l-38 -88 -29 53 c-52 93 -129 340 -147 468 -20 153 -22 189 -11 296 22
217 83 412 260 835 276 655 345 916 356 1344 6 233 7 243 37 255 34 14 40 12
64 -17z m-1990 -1319 c3 -9 -5 -100 -18 -203 -31 -242 -34 -542 -5 -701 23
-133 72 -287 146 -460 71 -165 133 -348 154 -455 44 -224 37 -516 -20 -820
-20 -107 -50 -210 -60 -209 -5 1 -19 5 -31 9 -18 5 -23 2 -23 -12 0 -15 -2
-16 -10 -3 -18 27 -28 81 -50 251 -43 344 -113 536 -228 627 -33 27 -53 34
-106 39 -36 3 -66 10 -66 15 0 5 -16 22 -35 39 -121 107 -133 537 -29 1031 42
199 147 533 242 763 23 57 35 73 63 87 42 22 68 23 76 2z m2312 -1671 c28 -34
51 -65 51 -69 0 -4 22 -36 48 -73 87 -118 362 -525 362 -535 0 -2 21 -40 47
-83 175 -295 308 -635 372 -953 50 -249 64 -428 58 -720 -7 -267 -15 -367 -48
-565 -80 -475 -269 -870 -563 -1173 -81 -84 -243 -228 -303 -271 l-33 -22 0
34 c0 19 11 94 25 168 141 748 205 1376 205 2024 0 658 -75 1333 -225 2040
-20 94 -40 188 -44 210 -4 23 -11 47 -16 55 -12 23 6 3 64 -67z m-339 -136
c73 -323 136 -681 174 -997 85 -699 15 -2352 -129 -3068 -25 -123 -52 -227
-63 -246 -14 -24 -17 -38 -10 -50 9 -16 7 -17 -13 -11 -66 20 -235 126 -402
252 -137 102 -367 334 -438 443 -136 205 -213 419 -256 705 -14 95 -18 180
-17 405 0 269 2 292 27 410 70 334 180 603 407 1000 21 36 52 91 68 122 17 31
78 139 135 240 189 332 424 835 452 967 11 51 21 26 65 -172z m4690 -2598
c747 -42 1414 -152 2040 -336 213 -62 580 -186 645 -218 17 -8 80 -35 140 -59
310 -125 666 -305 948 -480 309 -190 650 -440 795 -581 l94 -91 -60 -149
c-144 -364 -224 -563 -242 -600 -16 -35 -177 -427 -375 -915 -34 -85 -104
-256 -155 -380 -111 -271 -186 -455 -445 -1090 -109 -267 -245 -600 -302 -740
-58 -140 -147 -358 -198 -485 -52 -126 -149 -363 -216 -525 -67 -162 -132
-322 -144 -355 -13 -33 -55 -136 -93 -230 -39 -93 -111 -271 -162 -395 -51
-124 -150 -367 -220 -540 -70 -173 -167 -409 -215 -524 -48 -116 -118 -287
-155 -380 -38 -94 -123 -304 -190 -466 -67 -162 -154 -376 -194 -475 -229
-562 -398 -975 -476 -1165 -48 -118 -139 -339 -200 -490 -119 -291 -179 -424
-201 -451 -13 -15 -36 -8 -264 77 -301 114 -902 317 -1225 414 -994 299 -2020
500 -2960 580 -495 42 -1200 52 -1650 25 -236 -14 -548 -40 -600 -50 -14 -3
-88 -12 -165 -20 -818 -91 -1771 -329 -2612 -651 -109 -42 -243 -93 -298 -114
-55 -21 -109 -40 -119 -42 -20 -3 -17 -10 -276 617 -27 66 -115 280 -196 475
-80 195 -159 387 -173 425 -15 39 -96 237 -181 440 -84 204 -172 417 -195 475
-23 58 -90 222 -149 365 -59 143 -144 348 -188 455 -43 107 -115 281 -158 385
-43 105 -123 300 -178 435 -112 275 -356 870 -497 1210 -86 209 -217 527 -355
865 -82 202 -637 1551 -714 1735 -41 100 -273 667 -323 790 -66 162 -216 526
-289 702 -41 98 -74 180 -74 183 0 3 -29 74 -64 158 -35 83 -103 248 -151 366
-100 249 -105 213 45 325 359 268 964 592 1499 803 364 143 914 309 1251 378
186 38 613 108 795 130 110 14 209 27 220 30 11 2 155 14 320 26 250 19 389
22 840 23 358 1 601 -3 720 -12 498 -37 783 -63 1050 -97 196 -25 659 -91 708
-101 27 -6 27 -5 29 53 1 51 2 53 5 13 21 -295 95 -586 202 -798 89 -177 132
-237 365 -507 85 -99 103 -125 69 -104 -24 14 -106 -20 -126 -53 -23 -36 -27
-135 -18 -378 5 -124 7 -246 4 -272 l-5 -46 -137 -47 c-335 -116 -656 -283
-936 -486 l-96 -69 -52 45 c-53 45 -182 182 -340 357 -80 88 -91 97 -132 104
l-44 6 -114 -103 c-250 -228 -433 -397 -450 -417 -18 -19 -18 -22 7 -70 32
-63 100 -148 228 -285 106 -114 176 -203 210 -268 l21 -40 -21 -22 c-11 -12
-63 -87 -115 -167 -294 -449 -454 -851 -557 -1400 -12 -63 -24 -118 -27 -123
-2 -4 -11 -3 -19 4 -9 7 -23 8 -41 3 -16 -5 -169 -9 -341 -9 -310 0 -314 0
-331 -22 -23 -28 -28 -77 -42 -471 l-12 -324 30 -30 31 -30 303 -14 c392 -17
439 -26 439 -82 0 -40 58 -310 100 -465 100 -372 322 -820 580 -1175 l31 -42
-40 -46 c-22 -25 -137 -140 -256 -256 -174 -170 -215 -215 -215 -236 0 -30 34
-70 306 -363 200 -216 236 -249 272 -249 29 0 66 31 343 290 79 74 165 152
190 173 l47 37 168 -113 c215 -145 303 -196 489 -284 222 -105 378 -165 586
-223 102 -28 191 -55 199 -60 15 -9 30 -301 51 -948 l12 -373 28 -44 c25 -40
31 -44 81 -50 29 -3 313 -5 630 -3 l578 3 25 25 c33 33 40 91 60 530 38 812
40 842 58 855 17 12 85 35 257 86 251 74 535 196 764 327 77 44 352 228 388
259 15 14 22 11 72 -31 30 -26 146 -142 257 -257 203 -211 203 -211 238 -204
54 10 86 28 89 50 2 11 35 45 74 75 39 30 153 135 254 233 240 233 237 207 47
402 -122 124 -229 239 -332 357 l-32 36 79 109 c308 424 537 971 622 1488 12
72 27 133 33 137 7 4 32 8 57 8 25 1 182 2 350 3 202 1 311 6 324 13 11 7 14
14 8 18 -7 4 -5 17 6 39 14 27 18 88 24 372 l8 340 -23 45 c-18 36 -30 46 -57
51 -19 4 -163 10 -320 14 -157 3 -308 8 -337 11 l-52 5 -6 47 c-16 112 -77
391 -110 503 -115 388 -279 725 -528 1082 l-68 97 32 48 c18 26 128 144 246
262 205 208 213 217 213 255 0 39 -9 49 -265 312 -253 259 -268 272 -310 279
l-44 6 -223 -215 c-123 -118 -242 -231 -265 -251 l-41 -37 -94 67 c-259 183
-634 383 -875 464 l-122 42 -6 51 c-4 29 0 185 8 347 l15 295 -28 29 c-27 27
-36 30 -122 36 -51 3 -99 9 -105 13 -9 5 17 44 78 120 214 265 374 563 463
864 43 144 82 316 92 401 6 58 24 98 24 53 0 -11 4 -22 8 -25 5 -3 76 8 158
24 243 47 576 100 934 149 41 6 147 17 235 26 88 8 205 19 260 25 55 5 192 14
305 20 113 6 208 12 213 13 29 7 867 4 1007 -4z m4965 -2365 c124 -83 245
-172 245 -181 0 -13 -31 -81 -620 -1378 -95 -209 -201 -443 -236 -520 -90
-203 -235 -523 -371 -820 -66 -143 -158 -345 -205 -450 -224 -496 -779 -1718
-823 -1810 -13 -27 -123 -268 -243 -535 -121 -267 -264 -582 -317 -700 -54
-118 -130 -287 -170 -375 -40 -88 -86 -189 -103 -225 -16 -36 -88 -195 -160
-355 -71 -159 -161 -357 -199 -440 -39 -82 -157 -341 -263 -575 -663 -1464
-712 -1570 -729 -1570 -5 0 -18 12 -29 28 l-20 27 33 80 c64 156 299 733 386
945 48 118 137 337 199 485 61 149 198 484 304 745 107 261 243 597 304 745
61 149 176 430 255 625 80 195 243 594 362 885 244 595 403 984 510 1250 40
99 114 281 165 405 189 461 431 1053 530 1295 155 380 218 534 343 840 231
564 336 822 362 890 14 39 37 93 49 120 13 28 79 187 146 354 66 168 123 308
126 313 7 11 17 5 169 -98z m-18711 -17 c95 -224 365 -877 441 -1067 34 -85
135 -333 225 -550 89 -217 189 -460 221 -540 32 -80 94 -233 139 -340 45 -107
130 -314 190 -460 60 -146 132 -321 161 -390 28 -69 82 -199 119 -290 37 -91
104 -255 150 -365 45 -110 117 -285 160 -390 42 -104 129 -316 192 -470 64
-154 196 -476 293 -715 98 -239 208 -507 245 -595 38 -88 88 -209 113 -270 74
-183 312 -766 409 -1000 330 -801 386 -940 404 -1007 22 -88 13 -88 -25 0 -42
95 -52 117 -296 632 -108 228 -329 696 -490 1040 -161 344 -368 785 -460 980
-92 195 -274 582 -405 860 -131 278 -313 665 -405 860 -92 195 -191 407 -220
470 -49 108 -547 1169 -908 1935 -592 1258 -721 1535 -715 1539 2 1 23 18 48
38 78 61 202 131 285 160 44 15 82 28 85 28 3 0 23 -42 44 -93z m-465 -881
c43 -89 104 -217 136 -286 32 -69 93 -199 135 -290 43 -91 161 -343 263 -560
101 -217 231 -492 287 -610 103 -215 184 -389 319 -680 40 -85 103 -220 141
-300 99 -210 225 -477 285 -610 66 -145 364 -775 502 -1065 58 -121 136 -285
173 -365 90 -195 335 -718 480 -1025 65 -137 148 -315 185 -395 37 -80 113
-242 170 -360 57 -118 117 -246 134 -285 29 -65 29 -68 7 -41 -29 35 -170 305
-625 1194 -7 15 -93 182 -190 371 -97 190 -230 451 -297 580 -182 358 -320
626 -428 836 -133 256 -270 523 -411 800 -284 557 -376 736 -720 1405 -92 179
-207 402 -254 495 -82 160 -153 297 -386 745 -121 234 -222 440 -227 464 -2
15 19 32 89 75 51 31 100 64 110 73 13 13 20 15 30 6 8 -6 49 -84 92 -172z
m19535 121 c-3 -9 11 -21 38 -33 23 -10 69 -36 101 -56 32 -21 61 -38 65 -38
4 0 22 -12 39 -27 l31 -28 -142 -285 c-177 -357 -1268 -2525 -1546 -3075 -318
-627 -1805 -3582 -1981 -3935 -54 -108 -107 -204 -118 -214 l-21 -19 20 45
c11 24 26 58 35 74 8 16 15 39 15 52 0 12 5 22 10 22 6 0 15 12 21 28 11 29
451 1000 664 1467 73 160 163 358 200 440 87 192 263 581 303 665 17 36 72
157 122 270 51 113 107 237 125 275 19 39 95 207 170 373 75 167 149 332 165
365 26 57 340 751 457 1012 27 61 104 229 171 375 370 808 966 2121 979 2155
16 44 59 105 73 105 5 0 7 -6 4 -13z m-10915 -772 c17 -459 96 -2573 106
-2820 52 -1274 57 -1453 43 -1530 -4 -22 -4 -34 1 -27 6 10 10 8 14 -10 4 -12
7 -32 7 -43 0 -15 -3 -16 -12 -7 -7 7 -21 12 -31 12 -16 0 -17 3 -7 15 14 17
0 21 -16 5 -13 -13 -129 32 -318 125 -256 126 -422 244 -640 455 -225 219
-390 433 -500 650 -27 52 -52 100 -56 105 -20 25 -114 265 -145 367 -161 537
-150 1079 35 1623 48 143 173 400 263 542 108 169 183 260 372 448 141 141
210 201 318 278 75 53 140 97 142 97 3 0 22 11 43 23 88 56 261 141 307 152
l50 12 7 -81 c3 -45 11 -220 17 -391z m2097 406 c234 -110 483 -290 700 -506
350 -349 596 -790 704 -1265 53 -234 79 -651 52 -835 -77 -515 -205 -862 -450
-1220 -184 -268 -432 -514 -702 -694 -150 -100 -382 -222 -497 -261 -96 -32
-164 -40 -145 -17 6 7 7 31 3 57 -6 41 8 415 38 995 16 295 52 1048 71 1450
23 503 42 897 65 1350 13 264 29 590 35 725 7 135 14 248 17 253 7 13 23 8
109 -32z"/>
<path d="M6698 32235 c-21 -14 -38 -31 -38 -38 0 -7 -23 -30 -51 -51 l-51 -38
-36 34 -36 33 33 -43 33 -43 -73 -77 c-182 -191 -582 -657 -833 -971 -998
-1248 -1830 -2626 -2471 -4096 -281 -644 -603 -1529 -765 -2105 -29 -102 -69
-241 -90 -310 -65 -213 -290 -1173 -315 -1340 -3 -25 -17 -99 -30 -165 -29
-144 -104 -617 -140 -875 -187 -1371 -211 -2940 -65 -4295 49 -445 133 -1037
197 -1380 77 -417 244 -1159 319 -1420 14 -49 43 -153 63 -230 82 -303 251
-824 408 -1258 286 -792 606 -1511 1048 -2352 270 -514 674 -1180 1038 -1710
175 -255 482 -682 522 -725 18 -19 58 -71 90 -115 185 -254 681 -843 1014
-1205 377 -409 921 -946 1291 -1275 584 -519 1332 -1098 1982 -1532 1378 -923
2773 -1611 4318 -2131 195 -65 393 -131 440 -145 1716 -528 3504 -797 5290
-797 1103 0 2060 80 3115 260 805 138 1667 347 2350 570 250 82 449 145 488
154 58 14 865 323 1067 408 63 27 135 57 160 68 444 187 1355 635 1685 830 44
25 107 62 140 80 221 122 995 601 1056 654 12 10 45 32 73 48 28 17 73 47 100
67 28 20 60 43 72 51 33 22 277 195 359 254 136 99 582 441 735 564 951 768
1782 1586 2583 2542 998 1191 1869 2558 2512 3945 376 811 642 1502 935 2435
77 247 239 868 324 1246 234 1037 388 2207 426 3239 14 354 13 1156 0 1470
-18 436 -68 1064 -111 1395 -11 85 -26 209 -34 275 -56 468 -220 1352 -340
1825 -19 74 -44 177 -55 229 -11 51 -61 236 -110 410 -427 1501 -975 2803
-1751 4161 -21 36 -59 103 -85 150 -132 237 -433 702 -801 1240 -378 553
-1130 1477 -1570 1930 l-170 175 -1914 3 c-1053 2 -1947 0 -1987 -3 -73 -7
-74 -7 -89 -42 l-15 -36 44 -39 c68 -60 476 -388 484 -388 11 0 532 -447 733
-628 175 -158 820 -804 1006 -1007 922 -1006 1738 -2179 2362 -3395 171 -333
459 -966 558 -1225 29 -77 70 -178 90 -225 70 -163 322 -898 390 -1140 15 -52
43 -149 61 -215 320 -1133 508 -2284 563 -3460 27 -567 21 -1253 -14 -1705 -8
-102 -19 -250 -25 -330 -25 -328 -83 -799 -150 -1205 -54 -328 -184 -969 -233
-1150 -8 -27 -40 -147 -71 -265 -179 -675 -407 -1348 -671 -1980 -94 -223
-144 -336 -370 -820 -127 -273 -446 -857 -663 -1215 -201 -332 -483 -760 -649
-987 -628 -860 -1020 -1316 -1765 -2053 -364 -361 -597 -573 -923 -844 -88
-74 -198 -166 -245 -205 -47 -40 -117 -96 -157 -125 -63 -46 -155 -141 -182
-189 -8 -14 -11 -14 -25 -2 -19 15 16 37 -371 -235 -281 -198 -792 -535 -885
-584 -36 -19 -110 -62 -165 -96 -55 -35 -210 -125 -345 -200 -135 -76 -276
-158 -315 -183 -38 -26 -79 -47 -90 -48 -11 -1 -140 -60 -286 -132 -453 -222
-722 -341 -1194 -529 -308 -122 -391 -152 -740 -268 -304 -101 -612 -194 -903
-271 -293 -77 -395 -107 -459 -135 -29 -13 -76 -22 -118 -24 -64 -4 -693 -121
-775 -145 -19 -6 -123 -22 -230 -36 -107 -14 -247 -32 -310 -40 -344 -45 -685
-81 -830 -90 -47 -2 -139 -9 -205 -14 -383 -32 -1324 -42 -1739 -20 -1042 56
-1916 180 -2892 411 -138 32 -269 65 -290 72 -21 8 -57 17 -79 21 -92 17 -625
179 -976 297 -357 120 -687 246 -1104 421 -388 163 -1101 515 -1475 728 -894
509 -1601 999 -2399 1665 -382 318 -792 704 -1227 1157 -282 293 -355 374
-618 683 -383 450 -789 993 -1115 1490 -101 154 -196 299 -212 322 -16 23 -29
43 -29 46 0 3 -60 106 -134 229 -203 340 -349 607 -550 1008 -418 837 -747
1679 -1015 2598 -84 289 -219 823 -256 1012 -14 74 -34 171 -45 215 -24 99
-109 607 -149 895 -176 1255 -195 2479 -61 3780 81 781 286 1840 485 2510 19
63 55 187 81 275 104 364 312 950 488 1376 144 351 410 935 508 1119 29 52 72
136 98 185 270 529 726 1270 1108 1805 91 127 369 497 452 600 33 41 85 108
116 149 73 95 438 520 580 676 216 237 527 555 776 792 451 430 749 685 1344
1150 43 34 103 83 132 110 51 46 53 49 42 79 -6 18 -21 36 -33 40 -12 5 -904
10 -1982 11 l-1960 3 -37 -25z"/>
<path d="M9365 23784 c-96 -23 -172 -50 -485 -171 -162 -63 -398 -155 -525
-203 -274 -105 -371 -143 -1095 -423 -548 -212 -823 -319 -1195 -462 -609
-234 -653 -253 -765 -327 -75 -50 -156 -160 -184 -249 -10 -30 -22 -64 -28
-76 -15 -30 -4 -127 22 -194 11 -30 38 -78 60 -107 22 -29 40 -57 40 -63 0
-15 114 -65 190 -85 114 -29 279 -12 429 44 14 5 14 4 1 -13 -14 -17 -12 -17
15 1 17 12 59 35 95 52 98 46 1295 508 1448 558 73 25 159 57 190 73 54 27
264 110 1007 396 182 71 427 166 545 212 118 47 249 97 290 112 87 33 208 92
265 131 22 14 48 29 57 33 21 7 101 115 133 177 13 25 33 78 45 118 19 64 21
79 10 119 -45 181 -182 307 -375 348 -85 18 -112 18 -190 -1z"/>
<path d="M30173 23793 c-32 -4 -33 -6 -33 -49 0 -37 -3 -44 -19 -44 -13 0 -23
11 -31 35 l-12 35 -58 -31 c-74 -39 -159 -127 -197 -205 -29 -57 -30 -62 -22
-144 9 -85 44 -203 77 -251 28 -43 142 -138 212 -178 80 -46 182 -90 415 -180
294 -113 865 -334 1245 -481 605 -236 933 -362 995 -385 33 -12 179 -68 325
-125 146 -57 335 -130 420 -163 85 -33 233 -91 329 -128 204 -81 265 -93 417
-87 138 6 180 24 275 117 68 67 103 124 134 219 21 65 13 104 -46 227 -83 176
-226 281 -539 395 -41 15 -192 73 -335 130 -143 56 -352 137 -465 180 -113 43
-311 120 -440 170 -129 51 -275 107 -325 125 -49 19 -148 57 -220 85 -71 29
-193 76 -270 105 -77 29 -221 84 -320 123 -673 262 -1134 439 -1233 472 -115
40 -169 46 -279 33z"/>
<path d="M29490 22509 c-95 -24 -220 -84 -287 -137 -45 -36 -53 -48 -64 -98
-7 -31 -19 -58 -26 -61 -8 -3 -21 -20 -30 -37 -25 -49 -18 -145 20 -246 42
-110 90 -181 180 -267 74 -70 128 -101 282 -163 192 -77 634 -248 830 -320
121 -45 371 -139 555 -210 184 -71 538 -205 785 -298 248 -94 515 -196 595
-227 80 -31 276 -105 435 -165 160 -60 436 -164 615 -233 486 -186 556 -208
706 -222 115 -11 273 41 395 131 39 28 57 53 95 129 45 91 47 99 52 199 l4
103 -41 80 c-23 44 -66 109 -95 145 -49 59 -198 183 -236 195 -8 3 -112 43
-230 89 -118 45 -289 110 -380 144 -91 34 -257 97 -370 140 -329 127 -837 320
-935 355 -49 18 -310 117 -580 220 -269 103 -530 202 -580 220 -49 18 -238 90
-420 159 -290 112 -846 321 -960 361 -39 14 -175 36 -218 34 -12 0 -56 -9 -97
-20z"/>
<path d="M9986 22504 c-38 -7 -98 -23 -135 -35 -63 -20 -464 -171 -746 -280
-71 -28 -227 -87 -345 -131 -213 -80 -354 -133 -915 -347 -159 -60 -405 -154
-545 -207 -277 -104 -482 -182 -800 -304 -113 -43 -295 -112 -405 -153 -289
-109 -498 -190 -590 -229 -219 -93 -357 -250 -400 -454 -23 -109 -20 -157 17
-233 39 -78 151 -197 218 -231 141 -72 311 -98 423 -65 104 31 440 153 663
241 117 46 337 131 490 188 154 57 416 157 584 221 168 64 346 132 395 150 80
29 216 81 860 328 94 36 269 102 390 147 121 45 288 108 370 140 83 31 220 83
305 115 465 174 552 217 650 322 77 83 140 195 165 295 16 62 16 73 2 137 -37
162 -129 276 -287 355 -92 46 -92 46 -194 45 -55 0 -132 -7 -170 -15z"/>
<path d="M28968 21057 c-153 -53 -253 -141 -328 -291 -38 -74 -40 -83 -40
-167 0 -86 1 -89 23 -89 20 -1 21 -2 5 -14 -27 -20 -22 -46 24 -136 66 -128
225 -283 338 -328 148 -60 413 -161 525 -202 77 -27 148 -55 158 -61 10 -5 67
-27 125 -49 59 -21 244 -91 412 -155 308 -118 649 -247 750 -283 80 -29 402
-151 425 -162 29 -12 440 -169 500 -190 50 -17 315 -118 975 -370 960 -367
939 -360 1100 -367 133 -6 238 14 347 68 81 39 115 68 165 142 60 89 88 174
88 275 0 137 -22 210 -91 302 -79 105 -194 202 -304 257 -37 19 -409 164 -750
293 -77 29 -207 79 -290 111 -157 60 -507 192 -635 239 -41 15 -210 79 -375
143 -165 63 -453 172 -640 242 -187 70 -468 176 -625 237 -540 208 -616 237
-810 308 -107 39 -265 98 -350 132 -333 129 -358 137 -498 143 -125 6 -129 5
-224 -28z"/>
<path d="M10265 21027 c-82 -30 -301 -111 -485 -181 -184 -70 -524 -199 -755
-286 -520 -196 -824 -312 -1115 -425 -124 -48 -367 -140 -540 -205 -368 -137
-675 -253 -1030 -389 -140 -54 -358 -137 -485 -185 -277 -104 -296 -113 -397
-178 -104 -66 -177 -149 -240 -273 -43 -86 -51 -110 -56 -172 -5 -85 10 -174
43 -250 13 -29 21 -53 17 -53 -3 0 12 -18 33 -41 57 -58 150 -123 231 -160 61
-28 82 -32 183 -37 172 -7 252 9 493 99 113 43 220 85 237 93 35 19 45 20 36
5 -4 -5 18 4 48 21 30 16 92 43 138 59 46 16 210 77 364 136 154 59 417 159
585 222 168 63 391 147 495 187 105 40 271 104 370 141 99 37 277 105 395 150
118 45 343 131 500 190 157 59 346 131 420 160 121 47 223 85 690 258 454 168
614 312 685 618 l18 75 -28 83 c-31 95 -102 207 -172 272 -39 36 -67 51 -148
79 -91 30 -113 33 -240 37 l-140 3 -150 -53z"/>
<path d="M28485 19628 c-63 -16 -175 -60 -175 -70 0 -5 -4 -7 -9 -3 -6 3 -8
-6 -5 -21 4 -24 3 -26 -10 -14 -9 7 -13 17 -10 22 11 17 -32 -10 -57 -36 -13
-14 -30 -26 -37 -26 -7 0 -16 -8 -19 -17 -4 -10 -27 -47 -51 -83 -75 -109 -85
-140 -84 -260 0 -133 10 -173 62 -264 47 -83 152 -212 191 -235 194 -118 179
-111 639 -287 438 -167 747 -285 935 -355 105 -40 287 -109 405 -155 118 -45
258 -98 311 -117 53 -19 190 -71 305 -116 233 -90 817 -311 994 -376 63 -24
448 -170 855 -325 617 -235 755 -284 830 -296 164 -25 275 -15 420 37 72 26
94 40 153 97 116 112 140 149 157 237 26 133 16 230 -36 365 -22 58 -44 92
-94 147 -118 129 -211 188 -452 284 -140 56 -888 341 -968 368 -54 19 -402
152 -735 281 -304 117 -570 217 -705 265 -66 23 -383 144 -705 267 -322 124
-655 251 -740 283 -85 31 -189 72 -230 90 -41 19 -133 54 -205 80 -71 25 -146
52 -165 60 -170 69 -426 155 -518 174 -63 13 -191 12 -247 -1z"/>
<path d="M10940 19611 c-117 -27 -163 -43 -495 -169 -797 -303 -945 -359
-1255 -477 -184 -69 -428 -162 -542 -206 -114 -43 -260 -99 -325 -123 -65 -25
-291 -111 -503 -191 -212 -81 -464 -176 -560 -212 -185 -68 -448 -168 -615
-233 -55 -21 -199 -75 -320 -120 -121 -46 -238 -91 -260 -102 -22 -11 -68 -30
-103 -43 -171 -66 -327 -171 -403 -273 -143 -192 -167 -331 -97 -561 21 -66
29 -79 87 -133 120 -109 273 -181 415 -194 72 -6 238 15 277 36 15 9 23 3 52
-40 l34 -51 7 57 c4 31 4 59 1 62 -9 9 76 32 119 32 28 0 48 7 65 24 22 20
233 106 511 207 72 26 153 57 775 294 154 59 352 134 440 167 88 32 282 106
430 162 149 57 351 134 450 171 99 37 302 114 450 171 149 56 432 164 630 239
198 75 448 170 555 212 107 42 227 87 265 100 39 14 120 48 180 75 61 28 125
56 143 63 44 16 168 128 236 213 92 115 136 298 105 437 -7 33 -13 67 -12 75
2 23 -81 133 -141 187 -69 61 -146 107 -222 134 -87 31 -261 35 -374 10z"/>
<path d="M27698 18186 c-127 -44 -197 -86 -284 -171 -79 -79 -132 -173 -160
-284 -13 -52 -14 -74 -4 -128 15 -90 60 -209 105 -279 49 -76 153 -184 231
-240 115 -83 270 -146 1174 -484 85 -32 227 -86 315 -120 88 -34 201 -77 250
-95 50 -18 270 -101 490 -185 220 -83 528 -200 685 -260 523 -197 565 -214
600 -238 l35 -25 -75 7 c-107 8 -301 59 -1045 273 -616 177 -941 275 -1676
502 -529 164 -532 165 -664 164 -103 -1 -130 -6 -410 -77 -908 -229 -1643
-466 -2250 -723 -261 -111 -702 -329 -885 -439 -665 -397 -1082 -835 -1234
-1296 -76 -229 -108 -451 -126 -881 -10 -243 -1 -712 20 -1007 5 -80 15 -212
20 -295 18 -266 68 -795 100 -1060 54 -452 136 -1075 189 -1440 114 -776 122
-830 127 -844 2 -8 14 -75 25 -150 15 -108 82 -523 115 -721 3 -19 9 -39 14
-45 4 -5 10 -44 14 -85 11 -130 230 -1391 357 -2061 77 -408 75 -389 41 -390
-26 0 -27 0 -4 -9 13 -6 30 -27 38 -47 9 -21 17 -39 18 -41 30 -32 1139 375
1786 655 408 177 1165 534 1219 575 13 10 28 18 33 18 31 0 893 482 1293 723
394 237 1163 733 1193 769 8 11 4 76 -18 264 -44 374 -105 955 -145 1364 -19
201 -42 428 -50 505 -8 77 -30 302 -50 500 -78 805 -139 1252 -197 1455 -32
114 -97 262 -147 334 -160 231 -459 423 -755 482 -39 8 -132 17 -206 20 -224
11 -430 -29 -1180 -227 -882 -233 -971 -254 -982 -236 -4 7 -8 15 -8 19 0 13
156 87 290 139 70 26 154 60 186 74 294 132 1216 464 2024 731 453 149 828
269 1160 372 849 263 1356 424 1780 564 286 95 900 306 925 318 11 5 81 31
155 56 74 26 241 87 370 136 660 252 683 259 865 278 198 20 309 56 420 134
86 62 147 135 198 236 41 84 42 86 41 185 -3 186 -70 333 -218 480 -98 97
-188 156 -338 219 -82 35 -949 365 -1302 495 -93 34 -176 67 -185 72 -15 8
-122 49 -326 123 -88 32 -624 236 -1465 556 -948 362 -1669 635 -1865 707
-174 64 -265 89 -378 103 -127 16 -165 12 -269 -24z"/>
<path d="M11669 18195 c-102 -19 -210 -54 -424 -137 -99 -38 -403 -154 -675
-258 -272 -104 -547 -209 -610 -233 -245 -96 -1039 -395 -1320 -497 -162 -59
-340 -126 -395 -148 -133 -54 -515 -201 -1160 -444 -1039 -392 -1052 -398
-1234 -586 -108 -111 -161 -250 -161 -416 1 -156 44 -260 154 -371 125 -127
266 -184 500 -204 168 -14 200 -24 510 -143 1002 -386 1804 -658 3366 -1143
1148 -357 2145 -690 2765 -925 105 -40 282 -107 395 -150 385 -145 525 -204
589 -248 47 -31 73 -42 94 -40 17 2 32 -2 34 -9 7 -21 -86 -16 -226 12 -150
31 -325 75 -1151 295 -358 95 -564 125 -810 117 -320 -10 -498 -77 -765 -291
-200 -159 -312 -353 -390 -678 -38 -161 -81 -398 -90 -503 -4 -38 -11 -95 -16
-125 -14 -78 -73 -599 -128 -1122 -6 -53 -38 -347 -70 -655 -33 -307 -65 -605
-70 -663 -6 -58 -17 -157 -25 -220 -35 -268 -43 -358 -47 -520 l-2 -95 339
-228 c550 -370 779 -513 1469 -920 328 -193 895 -505 975 -537 19 -7 64 -30
100 -50 290 -162 1324 -614 1710 -747 312 -108 688 -232 810 -268 69 -19 133
-38 142 -41 13 -4 21 8 37 59 10 35 22 86 26 113 4 27 22 128 41 224 36 186
134 722 183 1005 102 585 147 845 191 1115 28 168 66 397 85 510 126 745 349
2306 395 2765 6 66 23 217 36 335 81 738 120 1422 111 1940 -17 926 -134 1267
-597 1731 -382 383 -883 695 -1630 1014 -565 241 -1218 456 -2050 675 -374 98
-570 140 -653 140 -74 0 -180 -28 -522 -135 -165 -51 -370 -114 -455 -140 -85
-25 -218 -66 -295 -90 -77 -24 -264 -80 -415 -125 -151 -44 -333 -99 -405
-120 -71 -22 -269 -78 -440 -125 -170 -47 -398 -110 -505 -140 -199 -55 -361
-90 -383 -82 -7 3 40 30 103 60 105 50 358 149 1080 421 140 52 593 223 1005
379 413 156 820 310 905 342 331 123 466 199 582 324 124 134 176 253 187 426
7 105 7 113 -21 185 -66 177 -212 307 -413 370 -91 28 -260 35 -366 15z"/>
</g>
</svg>
